<?xml version="1.0" encoding="UTF-8"?>
<!DOCTYPE svg PUBLIC "-//W3C//DTD SVG 1.1//EN" "http://www.w3.org/Graphics/SVG/1.1/DTD/svg11.dtd">
<svg xmlns="http://www.w3.org/2000/svg" version="1.1" width="64px" height="64px" style="shape-rendering:geometricPrecision; text-rendering:geometricPrecision; image-rendering:optimizeQuality; fill-rule:evenodd; clip-rule:evenodd" xmlns:xlink="http://www.w3.org/1999/xlink">
<g><path style="opacity:1" fill="#06d2fc" d="M 43.5,21.5 C 40.754,22.2513 38.0873,23.2513 35.5,24.5C 35.1667,24.5 34.8333,24.5 34.5,24.5C 31.8333,24.5 29.1667,24.5 26.5,24.5C 27.842,23.207 29.5087,22.3736 31.5,22C 35.4862,21.5012 39.4862,21.3345 43.5,21.5 Z"/></g>
<g><path style="opacity:1" fill="#0cb9f9" d="M 43.5,21.5 C 45.099,21.2322 46.4324,21.5655 47.5,22.5C 45.9582,23.3007 44.2915,23.634 42.5,23.5C 41.8333,23.5 41.5,23.8333 41.5,24.5C 39.5,24.5 37.5,24.5 35.5,24.5C 38.0873,23.2513 40.754,22.2513 43.5,21.5 Z"/></g>
<g><path style="opacity:0.227" fill="#179af6" d="M 47.5,22.5 C 49.2915,22.366 50.9582,22.6993 52.5,23.5C 50.4006,24.6118 48.0673,25.2785 45.5,25.5C 44.663,25.6021 43.9963,26.6021 43.5,28.5C 43.0266,26.753 42.6932,25.0863 42.5,23.5C 44.2915,23.634 45.9582,23.3007 47.5,22.5 Z"/></g>
<g><path style="opacity:1" fill="#1b85f6" d="M 52.5,23.5 C 54.099,23.2322 55.4324,23.5655 56.5,24.5C 53.7816,25.0427 51.115,25.7094 48.5,26.5C 46.8041,28.129 45.8041,27.7957 45.5,25.5C 48.0673,25.2785 50.4006,24.6118 52.5,23.5 Z"/></g>
<g><path style="opacity:0.928" fill="#0ac2fb" d="M 26.5,24.5 C 29.1667,24.5 31.8333,24.5 34.5,24.5C 31.4115,25.7846 28.0781,26.4512 24.5,26.5C 23.8333,26.5 23.1667,26.5 22.5,26.5C 23.5137,25.3263 24.847,24.6596 26.5,24.5 Z"/></g>
<g><path style="opacity:0.982" fill="#2170f6" d="M 56.5,24.5 C 57.675,24.281 58.675,24.6143 59.5,25.5C 57.735,27.8753 56.5683,30.5419 56,33.5C 54.5123,35.16 52.679,36.16 50.5,36.5C 50.5,35.1667 49.8333,34.5 48.5,34.5C 47.314,32.8058 47.4807,31.1392 49,29.5C 49.3333,29.8333 49.6667,30.1667 50,30.5C 50.2784,29.5842 50.7784,28.9175 51.5,28.5C 50.5,27.8333 49.5,27.1667 48.5,26.5C 51.115,25.7094 53.7816,25.0427 56.5,24.5 Z M 51.5,28.5 C 53.0281,28.5173 53.5281,29.184 53,30.5C 52.2828,29.9558 51.7828,29.2891 51.5,28.5 Z"/></g>
<g><path style="opacity:0.561" fill="#10a9f7" d="M 34.5,24.5 C 34.8333,24.5 35.1667,24.5 35.5,24.5C 37.5,24.5 39.5,24.5 41.5,24.5C 41.6309,25.3764 41.2975,26.0431 40.5,26.5C 39.5712,25.4502 38.9046,25.4502 38.5,26.5C 33.0773,26.5185 27.744,27.1851 22.5,28.5C 23.1667,27.8333 23.8333,27.1667 24.5,26.5C 28.0781,26.4512 31.4115,25.7846 34.5,24.5 Z"/></g>
<g><path style="opacity:0.608" fill="#1690f0" d="M 38.5,26.5 C 37.5707,27.3149 36.5707,28.1482 35.5,29C 31.1794,29.499 26.8461,29.6657 22.5,29.5C 22.5,29.1667 22.5,28.8333 22.5,28.5C 27.744,27.1851 33.0773,26.5185 38.5,26.5 Z"/></g>
<g><path style="opacity:0.936" fill="#0cbaf9" d="M 22.5,26.5 C 23.1667,26.5 23.8333,26.5 24.5,26.5C 23.8333,27.1667 23.1667,27.8333 22.5,28.5C 17.1063,28.7325 11.773,29.3992 6.5,30.5C 11.5063,28.3441 16.8397,27.0107 22.5,26.5 Z"/></g>
<g><path style="opacity:0.824" fill="#10adfa" d="M 22.5,28.5 C 22.5,28.8333 22.5,29.1667 22.5,29.5C 16.7263,29.9923 11.0597,30.9923 5.5,32.5C 5.5,32.1667 5.5,31.8333 5.5,31.5C 5.5,30.8333 5.83333,30.5 6.5,30.5C 11.773,29.3992 17.1063,28.7325 22.5,28.5 Z"/></g>
<g><path style="opacity:0.145" fill="#165d8f" d="M 5.5,31.5 C 5.5,31.8333 5.5,32.1667 5.5,32.5C 4.76668,34.4946 4.10002,34.6613 3.5,33C 3.83611,31.9701 4.50278,31.4701 5.5,31.5 Z"/></g>
<g><path style="opacity:0.913" fill="#206ff5" d="M 48.5,34.5 C 49.8333,34.5 50.5,35.1667 50.5,36.5C 46.4359,38.8012 42.1026,39.9679 37.5,40C 41.1621,38.1689 44.8288,36.3356 48.5,34.5 Z"/></g>
</svg>
